<?xml version="1.0" encoding="UTF-8"?>
<svg width="119px" height="120px" viewBox="0 0 119 120" version="1.1" xmlns="http://www.w3.org/2000/svg" xmlns:xlink="http://www.w3.org/1999/xlink">
    <!-- Generator: Sketch 59.1 (86144) - https://sketch.com -->
    <title>logo_globala_malen_horizontell</title>
    <desc>Created with Sketch.</desc>
    <defs>
        <polygon id="path-1" points="0.152727273 0.3485 111.926182 0.3485 111.926182 57.1649167 0.152727273 57.1649167"></polygon>
        <polygon id="path-3" points="0.430333333 0.1726 66.1362222 0.1726 66.1362222 48.847 0.430333333 48.847"></polygon>
    </defs>
    <g  stroke="none" stroke-width="1" fill="none" fill-rule="evenodd">
        <g id="logo_globala_malen_horizontell">
            <path d="M30.5904194,43 C32.0932241,40.488463 33.9136319,38.1853735 36,36.1491983 L18.2632891,17 C13.7987713,21.1994525 9.99528092,26.0649198 7,31.4311693 L30.5904194,43" id="Fill-1" fill="#06A648"></path>
            <path d="M74,29.3799647 C76.6614802,30.6008826 79.1361449,32.157105 81.372812,34 L99,14.7494263 C94.3577644,10.7436893 89.0911045,7.43927626 83.3765994,5 L74,29.3799647" id="Fill-2" fill="#E49F41"></path>
            <path d="M114.091402,35 L91,46.7048084 C92.1051301,49.3198766 92.8890896,52.0995114 93.3139451,55 L119,52.5340705 C118.243858,46.3499614 116.55961,40.4564155 114.091402,35" id="Fill-3" fill="#D92A39"></path>
            <g id="Group-7" transform="translate(0.000000, 17.000000)">
                <mask id="mask-2" fill="white">
                    <use xlink:href="#path-1"></use>
                </mask>
                <g id="Clip-5"></g>
                <path d="M88.6861818,26.311625 L111.926182,14.7445 C109.047273,9.40445833 105.374182,4.55241667 101.064727,0.3485 L83.5290909,19.4618333 C85.5272727,21.507875 87.2632727,23.810625 88.6861818,26.311625" id="Fill-4" fill="#00A149" mask="url(#mask-2)"></path>
                <path d="M25.9509091,42.8019583 C25.9509091,42.2809167 25.9661818,41.759875 25.9890909,41.241375 L0.132363636,38.9284583 C0.0509090909,40.2094583 0,41.500625 0,42.8019583 C0,47.7556667 0.616,52.5695833 1.76145455,57.1649167 L26.7374545,50.0126667 C26.2258182,47.6870417 25.9509091,45.2800833 25.9509091,42.8019583" id="Fill-6" fill="#007C46" mask="url(#mask-2)"></path>
            </g>
            <path d="M85.3017802,82 C83.4631252,84.2344076 81.3447301,86.2247844 79,87.9253745 L92.6411416,110 C97.7018932,106.570858 102.210794,102.381661 106,97.6001816 L85.3017802,82" id="Fill-8" fill="#F4B831"></path>
            <path d="M92.7767934,60.6581633 C92.7767934,63.1122449 92.5118605,65.505102 92,67.8112245 L117.235496,75 C118.385253,70.4056122 119,65.6020408 119,60.6581633 C119,59.4336735 118.958845,58.2142857 118.88168,57 L92.7536439,59.4489796 C92.7665047,59.8520408 92.7767934,60.255102 92.7767934,60.6581633" id="Fill-9" fill="#DE4A43"></path>
            <path d="M33.5544304,82 L13,97.7463326 C16.8227848,102.489112 21.3493671,106.622141 26.4227848,110 L40,87.8653303 C37.6075949,86.1993622 35.4405063,84.2246925 33.5544304,82" id="Fill-10" fill="#EC9141"></path>
            <path d="M26.5548376,55 C27.0096931,52.0639386 27.8465267,49.258312 29,46.629156 L6.06372285,35 C3.5280919,40.488491 1.79159935,46.4296675 1,52.6675192 L26.5548376,55" id="Fill-11" fill="#0094CB"></path>
            <path d="M90,112.252831 L76.1079934,90 C73.5817024,91.411005 70.8634756,92.5192852 68,93.2607042 L72.9021457,119 C79.0025937,117.612084 84.7554822,115.310863 90,112.252831" id="Fill-12" fill="#AA2446"></path>
            <g id="Group-16" transform="translate(50.000000, 71.000000)">
                <mask id="mask-4" fill="white">
                    <use xlink:href="#path-3"></use>
                </mask>
                <g id="Clip-14"></g>
                <path d="M41.0841111,0.1726 C40.1794444,2.83225 38.9476667,5.34145 37.4398889,7.6594 L58.2574444,23.3266 C61.6384444,18.4765 64.3115556,13.10365 66.1362222,7.3534 L41.0841111,0.1726" id="Fill-13" fill="#00ABC3" mask="url(#mask-4)"></path>
                <path d="M14.0335556,22.6534 C12.4491111,22.8829 10.8263333,23.00785 9.17544444,23.00785 C7.84911111,23.00785 6.54066667,22.9237 5.25522222,22.7758 L0.430333333,48.35995 C3.28744444,48.7807 6.20333333,49 9.17544444,49 C12.4721111,49 15.7074444,48.73225 18.861,48.2146 L14.0335556,22.6534" id="Fill-15" fill="#E36742" mask="url(#mask-4)"></path>
            </g>
            <path d="M62,27.3717925 C64.9423827,27.5604578 67.7859928,28.1161159 70.4762455,29 L80,4.38822226 C74.3361733,2.39819088 68.2902527,1.21967879 62,1 L62,27.3717925" id="Fill-17" fill="#DC3949"></path>
            <path d="M52,93.1537436 C49.0789443,92.4678108 46.3011278,91.3976525 43.7253808,90 L30,112.380491 C35.2793861,115.428508 41.0524358,117.684866 47.1733519,119 L52,93.1537436" id="Fill-18" fill="#DB3269"></path>
            <path d="M49.4589744,28 C52.174359,27.1310792 55.0384615,26.6019453 58,26.4618805 L58,0 C51.7102564,0.168596572 45.6666667,1.32802223 40,3.31746179 L49.4589744,28" id="Fill-19" fill="#0E435B"></path>
            <path d="M32,79.0551308 C30.3483275,76.5819963 28.9978873,73.8762787 28.0303697,71 L3,78.2721008 C4.89674296,84.3166792 7.70484155,89.9451922 11.2685739,95 L32,79.0551308" id="Fill-20" fill="#C18436"></path>
            <path d="M38.7164948,34 C40.935567,32.2349849 43.3814433,30.7516485 46,29.5784174 L36.4974227,5 C30.8376289,7.38264124 25.6237113,10.610319 21,14.5176439 L38.7164948,34" id="Fill-21" fill="#006690"></path>
        </g>
    </g>
</svg>